<svg width="36" height="29" viewBox="0 0 36 29" fill="none" xmlns="http://www.w3.org/2000/svg">
<path d="M16.5 2.41699H13.5C6 2.41699 3 4.83366 3 10.8753V18.1253C3 24.167 6 26.5837 13.5 26.5837H22.5C30 26.5837 33 24.167 33 18.1253V15.7087" stroke="#292D32" stroke-width="1.5" stroke-linecap="round" stroke-linejoin="round"/>
<path d="M24.0598 3.64935L12.2398 13.171C11.7898 13.5335 11.3398 14.2464 11.2498 14.766L10.6048 18.4031C10.3648 19.7202 11.5198 20.6385 13.1548 20.4573L17.6698 19.9377C18.2998 19.8652 19.1848 19.5027 19.6498 19.1402L31.4698 9.61852C33.5098 7.97518 34.4698 6.06602 31.4698 3.64935C28.4698 1.23268 26.0998 2.00602 24.0598 3.64935Z" stroke="#292D32" stroke-width="1.5" stroke-miterlimit="10" stroke-linecap="round" stroke-linejoin="round"/>
<path d="M22.3652 5.01465C23.3702 7.90257 26.1752 10.1621 29.7752 10.9838" stroke="#292D32" stroke-width="1.5" stroke-miterlimit="10" stroke-linecap="round" stroke-linejoin="round"/>
</svg>
